<svg id="图层_1" data-name="图层 1" xmlns="http://www.w3.org/2000/svg" viewBox="0 0 100 100"><defs><style>.cls-1{fill:#fff;}</style></defs><path class="cls-1" d="M16.3285,79.4625V73.1491h8.8388V40.9508A25.4033,25.4033,0,0,1,30.3758,25.22,22.4468,22.4468,0,0,1,44.1075,16.539V13.4875A5.1689,5.1689,0,0,1,45.8437,9.489a6.2618,6.2618,0,0,1,8.3126,0,5.1689,5.1689,0,0,1,1.7362,3.9985V16.539A22.6638,22.6638,0,0,1,69.6768,25.22a25.2363,25.2363,0,0,1,5.2611,15.7309V73.1491h8.7336v6.3134ZM50,92.0893a8.16,8.16,0,0,1-5.8925-2.4727,8.0222,8.0222,0,0,1-2.5254-5.9451H58.4179A8.4426,8.4426,0,0,1,50,92.0893Zm-18.5193-18.94H68.6245V40.9508a18.2367,18.2367,0,0,0-5.3664-13.2582A17.7112,17.7112,0,0,0,50.1052,22.221,17.8829,17.8829,0,0,0,36.9,27.6927a18.1447,18.1447,0,0,0-5.419,13.2581Z"/></svg>